<svg xmlns="http://www.w3.org/2000/svg" width="150" height="50" viewBox="0,0,150,50"><rect width="100%" height="100%" fill="brown"/><path d="M5 42 C56 14,79 38,136 29" stroke="#44d88e" fill="none"/><path fill="#e674e6" d="M55.13 39.83L55.22 39.92L55.29 39.99Q51.02 39.34 49.19 37.89L49.23 37.93L49.18 37.88Q47.31 36.39 46.89 33.38L47.03 33.53L46.98 33.47Q46.89 33.04 46.55 28.28L46.60 28.33L46.67 28.40Q46.56 27.07 46.48 25.82L46.61 25.95L46.62 25.95Q46.35 20.82 48.56 19.06L48.63 19.13L48.52 19.02Q51.23 16.97 58.99 16.29L58.96 16.25L59.01 16.30Q60.32 16.13 61.96 16.17L61.97 16.18L62.04 16.25Q62.07 16.28 65.04 16.28L64.87 16.11L64.94 16.18Q65.78 16.19 67.50 16.34L67.45 16.29L67.51 16.35Q67.12 17.41 66.09 20.49L65.90 20.29L65.98 20.38Q63.81 19.08 60.80 19.08L60.85 19.14L60.91 19.19Q60.13 19.17 59.33 19.25L59.28 19.20L59.43 19.35Q54.21 19.69 51.70 21.67L51.64 21.61L51.77 21.74Q49.63 23.22 49.48 26.57L49.55 26.64L49.56 26.65Q49.48 27.21 49.52 28.47L49.55 28.50L49.60 28.56Q49.61 33.29 52.01 35.38L52.15 35.52L52.03 35.40Q54.30 37.44 59.29 37.75L59.30 37.76L59.22 37.68Q62.36 37.85 65.37 36.06L65.44 36.13L65.26 35.95Q66.02 38.85 66.63 40.22L66.53 40.11L66.56 40.15Q64.49 40.44 62.85 40.40L62.80 40.34L62.79 40.34Q58.26 40.22 55.14 39.84ZM70.24 43.56L70.27 43.59L70.25 43.57Q68.58 40.68 67.89 38.09L67.87 38.07L67.83 38.03Q67.53 38.41 66.54 38.79L66.47 38.72L66.40 38.65Q66.01 37.81 65.82 36.97L65.98 37.13L65.53 35.34L65.62 35.44Q62.34 37.49 59.22 37.37L59.11 37.26L59.15 37.31Q54.80 37.03 52.48 35.28L52.52 35.32L52.60 35.40Q51.48 33.59 51.56 30.66L51.46 30.56L51.50 30.61Q51.56 26.02 54.03 23.89L54.06 23.92L54.21 24.06Q56.25 22.07 60.93 21.46L60.87 21.40L60.84 21.37Q61.65 21.26 62.37 21.26L62.47 21.36L62.39 21.28Q65.23 21.34 67.32 22.86L67.33 22.88L67.27 22.82Q67.86 20.78 69.08 17.54L68.95 17.41L69.06 17.52Q68.78 17.51 68.23 17.45L68.22 17.44L68.24 17.46Q67.75 17.46 67.48 17.46L67.38 17.36L67.35 17.33Q67.60 16.86 68.06 15.87L68.00 15.82L68.10 15.92Q67.87 15.91 65.38 15.83L65.32 15.78L65.23 15.69Q62.79 15.67 62.14 15.70L62.13 15.69L62.19 15.76Q51.61 16.02 48.15 18.61L48.16 18.63L48.21 18.67Q46.19 20.50 46.19 24.42L46.27 24.50L46.15 24.38Q46.19 25.52 46.30 28.23L46.38 28.31L46.37 28.29Q46.38 31.73 46.61 33.44L46.66 33.50L46.72 33.55Q47.09 36.67 48.69 38.19L48.71 38.21L48.69 38.19Q49.17 38.86 50.42 40.00L50.30 39.87L50.32 39.90Q53.68 41.77 58.94 42.53L58.90 42.50L58.98 42.58Q65.38 43.49 70.37 43.68Z"/><path fill="#ed7795" d="M122.19 28.77L122.17 28.75L116.22 28.78L116.14 28.70Q113.27 28.79 110.33 28.72L110.45 28.83L110.34 28.73Q110.38 35.35 108.33 40.87L108.42 40.96L108.34 40.89Q106.64 41.50 104.89 42.19L104.78 42.08L104.88 42.18Q107.56 36.38 107.56 29.71L107.54 29.70L107.70 29.85Q107.60 21.26 103.49 14.22L103.43 14.16L103.59 14.32Q104.97 14.98 107.45 15.78L107.54 15.87L107.41 15.74Q109.55 20.82 110.08 25.69L110.16 25.76L110.21 25.81Q113.32 26.15 116.18 26.11L116.26 26.19L116.15 26.08Q118.93 26.19 122.24 25.93L122.21 25.90L122.16 25.85Q122.71 21.52 124.46 16.42L124.32 16.29L124.30 16.26Q126.37 15.97 128.62 15.14L128.55 15.06L128.67 15.19Q124.94 21.81 124.94 29.77L124.92 29.75L125.00 29.83Q124.89 35.92 127.25 41.25L127.32 41.33L127.25 41.26Q125.64 40.64 123.59 40.33L123.76 40.51L123.58 40.32Q122.07 35.47 122.19 28.77ZM123.31 40.67L123.49 40.84L123.33 40.68Q124.42 40.90 125.52 41.17L125.54 41.18L125.54 41.18Q125.79 41.81 126.43 43.29L126.49 43.35L126.50 43.36Q129.93 44.39 131.71 45.30L131.61 45.20L131.58 45.16Q127.24 39.11 126.93 30.85L126.89 30.81L126.88 30.79Q126.70 22.89 130.35 16.07L130.19 15.91L129.11 16.35L129.20 16.44Q128.63 16.60 128.02 16.75L128.07 16.80L128.10 16.83Q128.42 15.92 129.25 14.36L129.34 14.45L129.27 14.38Q126.70 15.50 124.07 15.99L124.11 16.03L124.13 16.05Q122.46 20.89 122.00 25.58L121.87 25.44L121.83 25.41Q119.44 25.71 117.00 25.71L116.92 25.63L117.09 25.81Q114.56 25.67 112.05 25.52L112.16 25.63L112.09 25.56Q111.83 22.25 110.72 18.18L110.71 18.16L110.72 18.18Q110.04 18.07 108.59 17.69L108.65 17.75L108.71 17.80Q108.26 16.51 107.80 15.48L107.79 15.47L107.71 15.40Q105.11 14.78 102.83 13.52L102.84 13.53L102.68 13.37Q107.26 20.81 107.26 29.60L107.25 29.59L107.40 29.75Q107.42 36.73 104.29 42.85L104.14 42.70L104.31 42.87Q105.02 42.59 106.35 42.02L106.22 41.89L106.22 41.89Q105.84 42.69 105.04 44.21L105.04 44.21L105.19 44.36Q107.91 43.27 110.16 42.86L110.28 42.97L110.21 42.90Q112.00 37.27 112.19 31.10L112.26 31.18L112.17 31.09Q113.77 31.01 116.97 30.97L117.08 31.08L116.96 30.96Q119.81 30.92 121.72 31.00L121.81 31.10L121.84 31.12Q122.06 36.82 123.39 40.74Z"/><path fill="#ade872" d="M85.71 29.81L85.69 29.79L85.58 29.68Q81.51 29.60 80.94 32.65L80.89 32.60L80.95 32.66Q80.73 33.70 80.92 34.57L80.86 34.52L80.96 34.61Q80.91 35.33 81.37 36.73L81.38 36.75L81.34 36.71Q82.38 39.85 85.70 39.69L85.66 39.66L85.67 39.67Q87.66 39.72 88.99 38.15L89.11 38.27L89.09 38.25Q90.22 36.68 90.22 34.62L90.39 34.79L90.38 34.78Q90.40 34.08 90.25 33.01L90.23 33.00L90.31 33.07Q90.26 32.19 89.84 31.50L89.77 31.43L89.79 31.45Q88.13 29.76 85.54 29.64ZM90.58 48.31L90.53 48.26L90.40 48.12Q88.61 48.73 80.53 49.11L80.57 49.15L80.60 49.18Q78.85 49.18 77.21 48.34L77.19 48.32L77.24 48.36Q78.08 47.42 79.91 45.63L79.86 45.58L79.94 45.66Q82.40 46.75 84.50 46.56L84.41 46.47L84.37 46.44Q87.22 46.13 88.06 45.86L88.11 45.91L88.11 45.92Q90.46 45.33 90.46 43.54L90.48 43.56L90.46 43.54Q90.29 43.14 90.21 42.91L90.26 42.96L90.14 41.36L90.27 41.49Q90.11 40.57 90.11 39.77L90.19 39.85L90.27 39.93Q88.83 42.10 85.44 42.10L85.37 42.03L85.45 42.11Q81.57 42.12 79.93 39.91L79.89 39.87L79.88 39.85Q78.90 38.45 78.10 34.03L78.00 33.93L78.05 33.99Q77.74 32.46 77.74 31.05L77.68 30.99L77.62 30.94Q77.67 29.19 78.58 28.20L78.62 28.24L78.59 28.21Q80.23 26.76 84.87 26.76L84.97 26.86L86.60 26.93L86.76 27.09Q89.84 27.31 91.17 29.25L91.16 29.24L91.18 29.27Q91.40 28.45 91.81 26.81L91.92 26.92L91.77 26.78Q93.56 26.35 95.31 25.62L95.44 25.76L95.32 25.63Q92.79 31.87 92.79 39.10L92.69 39.00L92.70 39.01Q92.76 41.73 93.14 44.35L93.19 44.41L93.02 44.24Q93.32 45.04 93.25 45.72L93.27 45.74L93.33 45.81Q92.97 47.01 91.75 47.77L91.91 47.93L91.91 47.93Q91.32 48.09 90.48 48.21ZM93.42 51.11L93.55 51.24L93.41 51.10Q94.95 51.23 95.71 50.28L95.69 50.26L95.79 50.36Q96.04 49.32 95.93 48.59L95.97 48.63L95.99 48.65Q95.87 48.00 95.68 47.24L95.54 47.10L95.58 47.14Q94.43 41.99 94.77 36.74L94.78 36.75L94.73 36.70Q95.13 31.31 97.27 26.48L97.26 26.47L95.06 27.32L95.06 27.32Q95.41 26.84 95.64 26.26L95.55 26.18L96.15 25.13L96.16 25.14Q93.71 26.01 91.51 26.43L91.55 26.47L91.61 26.53Q91.14 27.25 90.99 28.28L91.09 28.37L91.10 28.38Q88.98 26.45 84.94 26.45L84.98 26.49L83.08 26.34L83.14 26.41Q79.90 26.40 78.23 27.81L78.22 27.81L78.20 27.78Q77.29 28.77 77.33 30.68L77.45 30.80L77.44 30.79Q77.41 33.20 78.44 37.46L78.43 37.46L78.42 37.44Q78.86 39.33 80.08 40.74L80.06 40.72L80.31 40.97L80.44 41.10L80.44 41.10Q81.53 43.37 84.11 43.90L84.30 44.09L84.27 44.05Q85.67 44.35 87.12 44.39L87.16 44.43L87.14 44.42Q88.77 44.33 89.83 43.94L89.97 44.08L89.90 44.01Q89.22 45.50 86.56 45.84L86.57 45.86L86.54 45.83Q85.58 46.09 84.90 46.09L84.90 46.10L84.53 46.10L84.46 46.03Q81.66 46.05 79.99 45.10L79.93 45.04L78.30 46.84L78.20 46.74Q77.42 47.64 76.58 48.59L76.64 48.65L76.67 48.67Q77.59 49.14 78.58 49.33L78.57 49.32L77.76 50.26L77.70 50.20Q80.48 51.34 86.11 51.34L86.08 51.31L86.35 51.35L86.20 51.20Q89.92 51.30 93.50 51.19ZM87.60 32.11L87.54 32.05L87.59 32.11Q88.74 31.89 89.66 32.31L89.79 32.45L89.73 32.38Q89.85 32.80 89.92 33.49L89.96 33.53L89.97 33.54Q90.01 33.84 89.97 34.76L90.03 34.81L89.91 34.69Q89.89 36.65 88.79 37.95L88.77 37.93L88.89 38.05Q87.57 39.33 85.67 39.29L85.73 39.35L85.80 39.41Q84.29 39.28 83.45 38.86L83.53 38.93L83.45 38.86Q83.15 37.79 83.11 36.76L83.02 36.68L82.97 36.62Q82.99 32.42 87.60 32.12Z"/><path d="M9 40 C83 18,79 31,140 29" stroke="#5278e9" fill="none"/><path fill="#3fde8e" d="M27.94 18.52L27.86 18.44L27.85 18.44Q27.12 18.80 26.96 19.60L26.96 19.60L26.99 24.77L26.95 24.73Q28.05 24.69 30.26 24.42L30.34 24.50L30.35 24.51Q30.32 24.94 30.28 25.77L30.23 25.73L30.19 25.68Q30.36 26.65 30.36 27.11L30.34 27.09L28.71 27.14L28.69 27.12Q27.92 27.22 27.04 27.22L27.06 27.24L26.93 27.11Q26.99 31.36 26.92 39.73L26.95 39.77L26.91 39.72Q24.74 39.84 23.25 40.52L23.26 40.54L23.19 40.46Q24.24 34.27 24.12 27.04L24.25 27.16L24.21 27.13Q23.48 27.00 22.18 26.74L22.16 26.72L22.24 26.80Q22.14 25.70 21.95 23.76L22.07 23.89L21.99 23.80Q23.16 24.37 24.11 24.56L24.20 24.64L24.19 24.63Q24.01 23.85 23.71 21.37L23.85 21.52L23.78 21.44Q23.63 19.47 23.63 18.51L23.57 18.46L23.60 18.48Q23.44 16.65 24.85 16.08L25.02 16.25L24.89 16.12Q25.82 15.87 30.65 15.03L30.70 15.08L30.58 14.96Q31.42 14.84 32.25 14.73L32.20 14.67L32.31 14.78Q31.97 15.43 31.82 16.31L31.78 16.28L31.47 17.83L31.65 18.01Q30.97 17.83 30.48 17.94L30.33 17.80L30.39 17.86Q29.79 17.86 27.89 18.47ZM33.30 19.58L33.38 19.66L33.39 19.68Q33.58 17.31 34.19 14.76L34.16 14.74L34.28 14.85Q33.68 15.21 32.39 15.82L32.31 15.73L32.75 14.09L32.68 14.01Q31.42 14.17 28.95 14.70L29.02 14.77L29.05 14.80Q27.96 14.96 24.76 15.88L24.62 15.74L24.58 15.70Q23.03 16.13 23.03 18.00L23.02 17.99L23.05 18.01Q23.10 18.37 23.18 18.71L23.16 18.69L23.25 18.78Q23.45 20.09 23.56 21.42L23.47 21.33L23.67 24.00L23.68 24.01Q22.43 23.75 21.78 23.29L21.77 23.28L21.65 23.16Q21.72 24.07 21.76 25.10L21.85 25.19L21.87 27.08L21.89 27.09Q22.76 27.43 23.56 27.50L23.57 27.51L23.46 29.50L23.91 29.57L23.93 29.59Q23.74 35.64 22.75 41.09L22.70 41.03L22.74 41.07Q23.67 40.53 24.85 40.26L24.88 40.29L24.65 42.30L24.84 42.49Q26.03 42.16 27.33 42.12L27.21 42.00L27.22 42.02Q28.48 42.02 29.73 42.28L29.83 42.38L29.81 42.36Q28.88 37.28 28.88 29.32L28.91 29.35L29.00 29.45Q30.05 29.39 32.14 29.47L32.04 29.36L32.15 27.61L32.11 27.56Q32.04 26.54 32.08 25.59L32.10 25.62L32.12 25.64Q31.62 25.70 30.55 25.97L30.68 26.10L30.55 25.97Q30.61 25.34 30.72 24.01L30.74 24.03L30.70 23.99Q29.96 24.31 29.16 24.39L29.09 24.32L29.01 24.24Q29.10 22.93 29.22 21.52L29.14 21.44L29.24 21.54Q29.28 20.78 29.82 20.44L29.94 20.56L29.95 20.58Q30.91 19.90 31.73 19.82L31.62 19.71L31.70 19.79Q32.38 19.57 33.21 19.50Z"/></svg>